<svg width="378pt" height="82pt" style="height:17px;width:90px" version="1.1" viewBox="0 0 378 82" xmlns="http://www.w3.org/2000/svg">
<g transform="translate(0 82) scale(.1 -.1)" fill="#fff">
<path d="m1859 724c-64-19-141-91-176-162-24-50-27-69-27-157 0-87 3-107 25-155 31-66 85-121 148-152 39-19 62-23 146-23s107 4 146 23c148 72 213 246 160 422-19 62-31 82-79 130-39 39-73 62-106 73-60 21-173 21-237 1zm186-73c77-35 129-134 128-246-2-132-60-230-153-255-133-36-241 79-241 255 0 87 24 158 70 204 59 59 127 74 196 42z"></path>
<path d="m2600 731c-90-28-155-86-196-176-24-51-28-73-28-146 0-77 3-93 32-152 40-80 102-138 181-168 45-17 72-20 136-17 93 5 153 28 214 83l41 37v119 120l-137-3-138-3v-35-35l78-3 77-3v-84c0-84 0-85-30-100-107-55-241-7-303 109-18 34-22 57-22 141s3 107 22 142c55 102 182 138 293 83 45-23 69-50 85-97 11-32 18-38 45-41l33-3-5 45c-10 85-80 159-174 185-44 12-166 13-204 2z"></path>
<path d="m3272 726c-184-60-268-297-174-489 54-110 152-167 287-167 136 0 236 63 290 182 25 55 29 75 29 153 0 76-5 99-28 151-31 69-80 122-145 155-56 29-193 36-259 15zm184-77c48-23 98-89 115-153 19-71 7-184-27-246-73-136-226-144-311-17-115 171-22 430 156 436 14 1 44-8 67-20z"></path>
<path d="m100 405v-325h60 60v145c0 80 3 145 8 144 4 0 61-65 127-144l120-144h78c43-1 76 2 74 7-3 4-71 86-151 182l-145 174 72 76c40 41 100 104 134 140l62 65-47 3-47 4-135-141c-74-78-138-141-142-141-5 0-8 63-8 140v140h-60-60v-325z"></path>
<path d="m720 405v-325h60 60v325 325h-60-60v-325z"></path>
<path d="m970 405v-325h40 40v276 275l118-153c65-84 160-208 211-276 91-119 95-122 132-122h39v325 325h-40-40l-2-217-3-217-165 217-165 216-82 1h-83v-325z"></path>
</g>
</svg>